<svg width="65" height="20" viewBox="0 0 65 20" fill="none" xmlns="http://www.w3.org/2000/svg">
<path d="M15.3184 6.46513C15.3184 2.88373 11.7943 0 7.47126 0H0V19.3953H5.21578V12.9302H6.81341L11.5123 19.3953H17.4329L11.8882 11.814C13.9557 10.6047 15.3184 8.65117 15.3184 6.46513ZM6.81341 9.72094H5.21578V3.25581H6.81341C8.599 3.25581 10.0557 4.69767 10.0557 6.51163C10.1026 8.23256 8.64599 9.72094 6.81341 9.72094ZM23.3066 3.90699C18.8896 3.90699 15.3184 7.44187 15.3184 11.814C15.3184 16.1861 18.8896 19.7209 23.3066 19.7209C27.7235 19.7209 31.3417 16.1861 31.3417 11.814C31.3887 7.39536 27.7705 3.90699 23.3066 3.90699ZM23.3066 15.9535C21.9439 15.9535 20.7692 14.093 20.7692 11.814C20.7692 9.53489 21.9439 7.67442 23.3066 7.67442C24.7162 7.67442 25.891 9.53489 25.891 11.814C25.891 14.093 24.7162 15.9535 23.3066 15.9535ZM58.8773 4.23255V14.0465C58.2664 15.0698 57.4676 15.7209 56.1989 15.7209C54.9302 15.7209 54.3193 14.9767 54.3193 12.5581V4.23255H43.6058L37.5912 10.1861V4.23255H32.3755V19.3953H37.5912V13.2558L43.8878 19.3953H50.4662L42.4781 11.4884L49.1036 4.93022V13.9535C49.1036 16.9302 50.9361 19.7209 55.4941 19.7209C57.6556 19.7209 59.6761 18.5116 60.6159 17.3954L62.9653 19.3953H64.0931V4.23255H58.8773Z" fill="#FEFEFE"/>
</svg>
